<svg width="48" height="48" viewBox="0 0 48 48" fill="none" xmlns="http://www.w3.org/2000/svg">
<rect width="48" height="48" fill="white"/>
<path fill-rule="evenodd" clip-rule="evenodd" d="M24.4637 0.0754793C24.1631 -0.0251598 23.8369 -0.0251598 23.5363 0.0754794L2.42893 7.14052C1.90937 7.31443 1.53601 7.76373 1.46668 8.29849C1.11893 10.9807 0.837338 15.416 1.10836 20.0925C1.37741 24.7348 2.19919 29.7856 4.16731 33.5908C5.39134 35.9975 7.80605 39.5502 11.1397 42.5215C14.4712 45.4908 18.861 48 24 48C29.139 48 33.5288 45.4908 36.8603 42.5215C40.194 39.5501 42.6087 35.9974 43.8327 33.5908C45.8008 29.7855 46.6226 24.7348 46.8916 20.0925C47.1627 15.416 46.8811 10.9807 46.5333 8.29849C46.464 7.76373 46.0906 7.31443 45.5711 7.14052L24.4637 0.0754793Z" fill="#2CB673"/>
<path fill-rule="evenodd" clip-rule="evenodd" d="M37.7004 15.825C38.8042 16.9265 38.806 18.7143 37.7044 19.8181L23.9672 33.5828C22.868 34.6842 21.0848 34.6886 19.9801 33.5927L11.8349 25.5119C10.7279 24.4136 10.7208 22.6258 11.8191 21.5188C12.9174 20.4118 14.7051 20.4047 15.8121 21.503L21.9588 27.6011L33.7074 15.829C34.8089 14.7252 36.5967 14.7234 37.7004 15.825Z" fill="white"/>
</svg>
