<svg width="16" height="16" viewBox="0 0 16 16" fill="none" xmlns="http://www.w3.org/2000/svg">
<g clip-path="url(#clip0)">
<rect width="16" height="16" fill="white"/>
<path fill-rule="evenodd" clip-rule="evenodd" d="M8.82125 0.0251598C8.72102 -0.00838659 8.61231 -0.00838659 8.51209 0.0251598L1.47631 2.38017C1.30312 2.43814 1.17867 2.58791 1.15556 2.76616C1.03964 3.66024 0.945779 5.13866 1.03612 6.69749C1.1258 8.24493 1.39973 9.92854 2.05577 11.1969C2.46378 11.9992 3.26868 13.1834 4.37992 14.1738C5.49041 15.1636 6.95368 16 8.66667 16C10.3797 16 11.8429 15.1636 12.9534 14.1738C14.0647 13.1834 14.8696 11.9991 15.2776 11.1969C15.9336 9.92851 16.2075 8.24492 16.2972 6.69749C16.3876 5.13866 16.2937 3.66024 16.1778 2.76616C16.1547 2.58791 16.0302 2.43814 15.857 2.38017L8.82125 0.0251598Z" fill="#2CB673"/>
<path fill-rule="evenodd" clip-rule="evenodd" d="M13.2336 5.275C13.6016 5.64218 13.6022 6.2381 13.235 6.60602L8.6559 11.1943C8.28949 11.5614 7.69509 11.5629 7.32686 11.1976L4.6118 8.50395C4.2428 8.13786 4.24043 7.54194 4.60653 7.17294C4.97262 6.80393 5.56853 6.80157 5.93754 7.16766L7.98643 9.20036L11.9026 5.27633C12.2698 4.90841 12.8657 4.90781 13.2336 5.275Z" fill="white"/>
</g>
<defs>
<clipPath id="clip0">
<rect width="16" height="16" fill="white"/>
</clipPath>
</defs>
</svg>
