<svg width="128" height="128" viewBox="0 0 128 128" fill="none" xmlns="http://www.w3.org/2000/svg">
<rect width="128" height="128" fill="white"/>
<path fill-rule="evenodd" clip-rule="evenodd" d="M65.4498 0.201278C64.6623 -0.0670928 63.8082 -0.0670928 63.0208 0.201278L7.74226 19.0414C6.38158 19.5051 5.40377 20.7033 5.2222 22.1293C4.31148 29.2819 3.574 41.1093 4.2838 53.5799C4.98842 65.9594 7.1406 79.4283 12.295 89.5756C15.5006 95.9933 21.8245 105.467 30.5552 113.391C39.2802 121.309 50.7767 128 64.2353 128C77.6938 128 89.1904 121.309 97.9153 113.391C106.646 105.467 112.97 95.993 116.176 89.5753C121.33 79.4281 123.482 65.9594 124.187 53.5799C124.897 41.1093 124.159 29.2819 123.248 22.1293C123.067 20.7033 122.089 19.5051 120.728 19.0414L65.4498 0.201278Z" fill="#2CB673"/>
<path fill-rule="evenodd" clip-rule="evenodd" d="M98.7304 40.7882C101.674 43.7257 101.679 48.4931 98.7411 51.4364L62.1086 88.1423C59.1772 91.0795 54.422 91.0913 51.4762 88.1687L29.7558 66.6198C26.8037 63.6911 26.7848 58.9238 29.7135 55.9717C32.6423 53.0197 37.4096 53.0008 40.3617 55.9295L56.7527 72.1911L88.0822 40.7989C91.0197 37.8555 95.7871 37.8507 98.7304 40.7882Z" fill="white"/>
</svg>
