<svg width="48" height="48" viewBox="0 0 48 48" fill="none" xmlns="http://www.w3.org/2000/svg">
<rect width="48" height="48" fill="white"/>
<path fill-rule="evenodd" clip-rule="evenodd" d="M24.4637 0.0754793C24.1631 -0.0251598 23.8369 -0.0251598 23.5363 0.0754794L2.42893 7.14052C1.90937 7.31443 1.53601 7.76373 1.46668 8.29849C1.11893 10.9807 0.837338 15.416 1.10836 20.0925C1.37741 24.7348 2.19919 29.7856 4.16731 33.5908C5.39134 35.9975 7.80605 39.5502 11.1397 42.5215C14.4712 45.4908 18.861 48 24 48C29.139 48 33.5288 45.4908 36.8603 42.5215C40.194 39.5501 42.6087 35.9974 43.8327 33.5908C45.8008 29.7855 46.6226 24.7348 46.8916 20.0925C47.1627 15.416 46.8811 10.9807 46.5333 8.29849C46.464 7.76373 46.0906 7.31443 45.5711 7.14052L24.4637 0.0754793Z" fill="#E40D0D"/>
<path d="M34.1154 18.0901C35.2949 16.9257 35.2949 15.0378 34.1154 13.8733C32.9358 12.7089 31.0234 12.7089 29.8439 13.8733L23.9928 19.6496L18.1561 13.8876C16.9766 12.7232 15.0642 12.7232 13.8846 13.8876C12.7051 15.052 12.7051 16.9399 13.8846 18.1044L19.7213 23.8664L14.6269 28.8956C13.4474 30.0601 13.4474 31.948 14.6269 33.1124C15.8065 34.2768 17.7188 34.2768 18.8984 33.1124L23.9928 28.0832L29.1016 33.1267C30.2812 34.2911 32.1935 34.2911 33.3731 33.1267C34.5526 31.9622 34.5526 30.0743 33.3731 28.9099L28.2642 23.8664L34.1154 18.0901Z" fill="white"/>
</svg>
