<svg width="16" height="16" viewBox="0 0 16 16" fill="none" xmlns="http://www.w3.org/2000/svg">
<g clip-path="url(#clip0)">
<rect width="16" height="16" fill="white"/>
<path fill-rule="evenodd" clip-rule="evenodd" d="M8.1613 0.0251598C8.05672 -0.00838659 7.94328 -0.00838659 7.8387 0.0251598L0.497019 2.38017C0.316303 2.43814 0.186438 2.58791 0.162323 2.76616C0.0413686 3.66024 -0.0565781 5.13866 0.037692 6.69749C0.131274 8.24493 0.417111 9.92854 1.10167 11.1969C1.52742 11.9992 2.36732 13.1834 3.52687 14.1738C4.68565 15.1636 6.21254 16 8 16C9.78747 16 11.3144 15.1636 12.4731 14.1738C13.6327 13.1834 14.4726 11.9991 14.8983 11.1969C15.5829 9.92851 15.8687 8.24492 15.9623 6.69749C16.0566 5.13866 15.9586 3.66024 15.8377 2.76616C15.8136 2.58791 15.6837 2.43814 15.503 2.38017L8.1613 0.0251598Z" fill="#E40D0D"/>
<path d="M11.6783 5.93909C12.1072 5.4955 12.1072 4.77629 11.6783 4.3327C11.2494 3.8891 10.554 3.8891 10.1251 4.3327L7.99737 6.53319L5.87494 4.33813C5.44602 3.89454 4.75061 3.89454 4.32169 4.33813C3.89277 4.78172 3.89277 5.50093 4.32169 5.94452L6.44412 8.13958L4.59161 10.0555C4.1627 10.4991 4.1627 11.2183 4.59161 11.6619C5.02053 12.1055 5.71594 12.1055 6.14486 11.6619L7.99737 9.74598L9.85514 11.6673C10.2841 12.1109 10.9795 12.1109 11.4084 11.6673C11.8373 11.2237 11.8373 10.5045 11.4084 10.0609L9.55062 8.13958L11.6783 5.93909Z" fill="white"/>
</g>
<defs>
<clipPath id="clip0">
<rect width="16" height="16" fill="white"/>
</clipPath>
</defs>
</svg>
