<svg width="128" height="128" viewBox="0 0 128 128" fill="none" xmlns="http://www.w3.org/2000/svg">
<rect width="128" height="128" fill="white"/>
<path fill-rule="evenodd" clip-rule="evenodd" d="M65.4498 0.201278C64.6623 -0.0670928 63.8082 -0.0670928 63.0208 0.201278L7.74226 19.0414C6.38158 19.5051 5.40377 20.7033 5.2222 22.1293C4.31148 29.2819 3.574 41.1093 4.2838 53.5799C4.98842 65.9594 7.1406 79.4283 12.295 89.5756C15.5006 95.9933 21.8245 105.467 30.5552 113.391C39.2802 121.309 50.7767 128 64.2353 128C77.6938 128 89.1904 121.309 97.9153 113.391C106.646 105.467 112.97 95.993 116.176 89.5753C121.33 79.4281 123.482 65.9594 124.187 53.5799C124.897 41.1093 124.159 29.2819 123.248 22.1293C123.067 20.7033 122.089 19.5051 120.728 19.0414L65.4498 0.201278Z" fill="#E40D0D"/>
<path d="M89.4516 50.5006C92.3921 47.5602 92.3921 42.7928 89.4516 39.8524C86.5112 36.912 81.7439 36.912 78.8034 39.8524L64.2172 54.4386L49.667 39.8884C46.7266 36.948 41.9592 36.948 39.0188 39.8884C36.0784 42.8288 36.0784 47.5962 39.0188 50.5366L53.569 65.0868L40.8692 77.7866C37.9288 80.727 37.9288 85.4944 40.8692 88.4348C43.8097 91.3752 48.577 91.3752 51.5174 88.4348L64.2172 75.735L76.953 88.4708C79.8934 91.4112 84.6608 91.4112 87.6012 88.4708C90.5416 85.5304 90.5416 80.763 87.6012 77.8226L74.8654 65.0868L89.4516 50.5006Z" fill="white"/>
</svg>
