<svg width="128" height="128" viewBox="0 0 128 128" fill="none" xmlns="http://www.w3.org/2000/svg">
<rect width="128" height="128" fill="white"/>
<path fill-rule="evenodd" clip-rule="evenodd" d="M65.4498 0.201278C64.6623 -0.0670928 63.8082 -0.0670928 63.0208 0.201278L7.74226 19.0414C6.38158 19.5051 5.40377 20.7033 5.2222 22.1293C4.31148 29.2819 3.574 41.1093 4.2838 53.5799C4.98842 65.9594 7.1406 79.4283 12.295 89.5756C15.5006 95.9933 21.8245 105.467 30.5552 113.391C39.2802 121.309 50.7767 128 64.2353 128C77.6938 128 89.1904 121.309 97.9153 113.391C106.646 105.467 112.97 95.993 116.176 89.5753C121.33 79.4281 123.482 65.9594 124.187 53.5799C124.897 41.1093 124.159 29.2819 123.248 22.1293C123.067 20.7033 122.089 19.5051 120.728 19.0414L65.4498 0.201278Z" fill="#ECB800"/>
<circle cx="63.7649" cy="93.647" r="8.94118" fill="white"/>
<path fill-rule="evenodd" clip-rule="evenodd" d="M58.9649 78.7577C60.0943 80.0377 61.6379 80.6777 63.5955 80.6777C65.1767 80.6777 66.532 80.2259 67.6614 79.3224C68.8661 78.4188 69.6191 77.1389 69.9202 75.4824C70.2967 73.9012 71.1249 72.3953 72.4049 70.9647C73.7602 69.4589 75.6802 67.6894 78.1649 65.6565C80.8002 63.3224 82.9461 61.3271 84.6026 59.6706C86.2591 58.0141 87.652 56.0188 88.7814 53.6847C89.9861 51.3506 90.5885 48.7906 90.5885 46.0047C90.5885 42.24 89.4967 38.8894 87.3132 35.953C85.1296 32.9412 82.1179 30.6071 78.2779 28.9506C74.4379 27.2188 70.0708 26.353 65.1767 26.353C60.8096 26.353 56.4426 27.0683 52.0755 28.4988C47.7838 29.8541 43.9438 31.7741 40.5555 34.2588C39.2755 35.2377 38.3343 36.2541 37.732 37.3083C37.2049 38.3624 36.9414 39.68 36.9414 41.2612C36.9414 43.5953 37.5814 45.5906 38.8614 47.2471C40.2167 48.8283 41.8355 49.6189 43.7179 49.6189C45.2991 49.6189 47.3696 48.9036 49.9296 47.473L52.6402 46.1177C54.7485 44.913 56.6308 44.0094 58.2873 43.4071C60.0191 42.7294 61.7508 42.3906 63.4826 42.3906C65.5908 42.3906 67.2473 42.88 68.452 43.8589C69.6567 44.8377 70.2591 46.1553 70.2591 47.8118C70.2591 49.4683 69.8073 50.9741 68.9038 52.3294C68.0755 53.6847 66.7955 55.3036 65.0638 57.1859C62.6543 59.6706 60.772 62.1177 59.4167 64.5271C58.0614 66.8612 57.3838 69.7977 57.3838 73.3365C57.3838 75.6706 57.9108 77.4777 58.9649 78.7577Z" fill="white"/>
</svg>
