<svg width="48" height="48" viewBox="0 0 48 48" fill="none" xmlns="http://www.w3.org/2000/svg">
<rect width="48" height="48" fill="white"/>
<path fill-rule="evenodd" clip-rule="evenodd" d="M24.4637 0.0754793C24.1631 -0.0251598 23.8369 -0.0251598 23.5363 0.0754794L2.42893 7.14052C1.90937 7.31443 1.53601 7.76373 1.46668 8.29849C1.11893 10.9807 0.837338 15.416 1.10836 20.0925C1.37741 24.7348 2.19919 29.7856 4.16731 33.5908C5.39134 35.9975 7.80605 39.5502 11.1397 42.5215C14.4712 45.4908 18.861 48 24 48C29.139 48 33.5288 45.4908 36.8603 42.5215C40.194 39.5501 42.6087 35.9974 43.8327 33.5908C45.8008 29.7855 46.6226 24.7348 46.8916 20.0925C47.1627 15.416 46.8811 10.9807 46.5333 8.29849C46.464 7.76373 46.0906 7.31443 45.5711 7.14052L24.4637 0.0754793Z" fill="#ECB800"/>
<circle cx="24.059" cy="35.1176" r="3.35294" fill="white"/>
<path fill-rule="evenodd" clip-rule="evenodd" d="M22.2588 29.5342C22.6824 30.0142 23.2612 30.2542 23.9953 30.2542C24.5882 30.2542 25.0965 30.0847 25.52 29.7459C25.9718 29.4071 26.2541 28.9271 26.3671 28.3059C26.5082 27.713 26.8188 27.1483 27.2988 26.6118C27.8071 26.0471 28.5271 25.3836 29.4588 24.6212C30.4471 23.7459 31.2518 22.9977 31.8729 22.3765C32.4941 21.7553 33.0165 21.0071 33.44 20.1318C33.8918 19.2565 34.1176 18.2965 34.1176 17.2518C34.1176 15.84 33.7082 14.5836 32.8894 13.4824C32.0706 12.353 30.9412 11.4777 29.5012 10.8565C28.0612 10.2071 26.4235 9.88239 24.5882 9.88239C22.9506 9.88239 21.3129 10.1506 19.6753 10.6871C18.0659 11.1953 16.6259 11.9153 15.3553 12.8471C14.8753 13.2141 14.5224 13.5953 14.2965 13.9906C14.0988 14.3859 14 14.88 14 15.473C14 16.3483 14.24 17.0965 14.72 17.7177C15.2282 18.3106 15.8353 18.6071 16.5412 18.6071C17.1341 18.6071 17.9106 18.3389 18.8706 17.8024L19.8871 17.2942C20.6776 16.8424 21.3835 16.5036 22.0047 16.2777C22.6541 16.0236 23.3035 15.8965 23.9529 15.8965C24.7435 15.8965 25.3647 16.08 25.8165 16.4471C26.2682 16.8142 26.4941 17.3083 26.4941 17.9294C26.4941 18.5506 26.3247 19.1153 25.9859 19.6236C25.6753 20.1318 25.1953 20.7389 24.5459 21.4447C23.6424 22.3765 22.9365 23.2942 22.4282 24.1977C21.92 25.073 21.6659 26.1742 21.6659 27.5012C21.6659 28.3765 21.8635 29.0542 22.2588 29.5342Z" fill="white"/>
</svg>
