<svg width="16" height="16" viewBox="0 0 16 16" fill="none" xmlns="http://www.w3.org/2000/svg">
<g clip-path="url(#clip0)">
<rect width="16" height="16" fill="white"/>
<path fill-rule="evenodd" clip-rule="evenodd" d="M8.1613 0.0251598C8.05672 -0.00838659 7.94328 -0.00838659 7.8387 0.0251598L0.497019 2.38017C0.316303 2.43814 0.186438 2.58791 0.162323 2.76616C0.0413686 3.66024 -0.0565781 5.13866 0.037692 6.69749C0.131274 8.24493 0.417111 9.92854 1.10167 11.1969C1.52742 11.9992 2.36732 13.1834 3.52687 14.1738C4.68565 15.1636 6.21254 16 8 16C9.78747 16 11.3144 15.1636 12.4731 14.1738C13.6327 13.1834 14.4726 11.9991 14.8983 11.1969C15.5829 9.92851 15.8687 8.24492 15.9623 6.69749C16.0566 5.13866 15.9586 3.66024 15.8377 2.76616C15.8136 2.58791 15.6837 2.43814 15.503 2.38017L8.1613 0.0251598Z" fill="#ECB800"/>
<circle cx="8" cy="13" r="1" fill="white"/>
<path fill-rule="evenodd" clip-rule="evenodd" d="M7.28421 10.8147C7.45263 11.0056 7.68281 11.1011 7.97474 11.1011C8.21053 11.1011 8.41263 11.0337 8.58105 10.8989C8.7607 10.7642 8.87298 10.5733 8.91789 10.3263C8.97404 10.0905 9.09754 9.86596 9.28842 9.65263C9.49053 9.42807 9.77684 9.16421 10.1474 8.86105C10.5404 8.51298 10.8604 8.21544 11.1074 7.96842C11.3544 7.7214 11.5621 7.42386 11.7305 7.07579C11.9102 6.72772 12 6.34596 12 5.93053C12 5.36912 11.8372 4.86947 11.5116 4.43158C11.186 3.98246 10.7368 3.63439 10.1642 3.38737C9.59158 3.12912 8.94035 3 8.21053 3C7.5593 3 6.90807 3.10667 6.25684 3.32C5.61684 3.52211 5.04421 3.80842 4.53895 4.17895C4.34807 4.32491 4.20772 4.47649 4.11789 4.63368C4.0393 4.79088 4 4.98737 4 5.22316C4 5.57123 4.09544 5.86877 4.28632 6.11579C4.48842 6.35158 4.72982 6.46947 5.01053 6.46947C5.24632 6.46947 5.55509 6.36281 5.93684 6.14947L6.34105 5.94737C6.65544 5.76772 6.93614 5.63298 7.18316 5.54316C7.4414 5.44211 7.69965 5.39158 7.95789 5.39158C8.27228 5.39158 8.5193 5.46456 8.69895 5.61053C8.8786 5.75649 8.96842 5.95298 8.96842 6.2C8.96842 6.44702 8.90105 6.67158 8.76632 6.87368C8.64281 7.07579 8.45193 7.31719 8.19368 7.59789C7.83439 7.96842 7.55368 8.33333 7.35158 8.69263C7.14947 9.0407 7.04842 9.4786 7.04842 10.0063C7.04842 10.3544 7.12702 10.6239 7.28421 10.8147Z" fill="white"/>
</g>
<defs>
<clipPath id="clip0">
<rect width="16" height="16" fill="white"/>
</clipPath>
</defs>
</svg>
